# xmcd
#
# Track frame offsets: 
#        150
#        20056
#        35268
#        54793
#        79050
#        101428
#        124487
#        151242
#        173155
#        190725
#        211217
#        230390
#        245073
#        260547
#        298629
#
# Disc length: 4048 seconds
#
# Revision: 1
# Processed by: cddbd v1.5.2PL0 Copyright (c) Steve Scherf et al.
# Submitted via: ExactAudioCopy v1.3
#
DISCID=c80fce0f
DTITLE=Joe Satriani - Playlist
DYEAR=1900
DGENRE=
TTITLE0=Surfing With The Alien
TTITLE1=Always With Me, Always With You
TTITLE2=The Crush Of Love
TTITLE3=Flying In A Blue Dream
TTITLE4=Summer Song
TTITLE5=Time Machine
TTITLE6=Luminous Flesh Giants
TTITLE7=Ceremony
TTITLE8=Starry Night
TTITLE9=Up In Flames
TTITLE10=It's So Good
TTITLE11=Crowd Chant
TTITLE12=I Just Wanna Rock
TTITLE13=Revelation
TTITLE14=Data
EXTD=
EXTT0=
EXTT1=
EXTT2=
EXTT3=
EXTT4=
EXTT5=
EXTT6=
EXTT7=
EXTT8=
EXTT9=
EXTT10=
EXTT11=
EXTT12=
EXTT13=
EXTT14=
PLAYORDER=
